<?xml version="1.0" encoding="utf-8"?>
<!-- Generator: Adobe Illustrator 16.0.0, SVG Export Plug-In . SVG Version: 6.00 Build 0)  -->
<!DOCTYPE svg PUBLIC "-//W3C//DTD SVG 1.1//EN" "http://www.w3.org/Graphics/SVG/1.1/DTD/svg11.dtd">
<svg version="1.1" id="Livello_1" xmlns="http://www.w3.org/2000/svg" xmlns:xlink="http://www.w3.org/1999/xlink" x="0px" y="0px"
	 width="78.74px" height="157.463px" viewBox="0 0 78.74 157.463" enable-background="new 0 0 78.74 157.463" xml:space="preserve">
<g>
	<path fill="#CD0F47" d="M53.272,20.346c0,9.732-7.895,17.623-17.623,17.623c-9.738,0-17.626-7.89-17.626-17.623
		c0-9.734,7.888-17.624,17.626-17.624C45.378,2.722,53.272,10.612,53.272,20.346z"/>
	<path fill="#CD0F47" d="M36.829,37.969c40.181,0,35.65,52.575,35.65,52.575s-3.891,7.837-9.936,0c0,0-1.73-24.979-9.508-33.236
		v40.208v55.678c0,0-5.62,9.607-12.961,0l-0.431-48.74c0,0-1.374-1.598-3.405-1.803c-2.029,0.205-3.404,1.803-3.404,1.803
		l-0.431,48.74c-7.347,9.607-12.962,0-12.962,0V97.516V57.307c-7.777,8.259-9.504,33.237-9.504,33.237c-6.049,7.837-9.938,0-9.938,0
		s-4.532-52.575,35.649-52.575"/>
</g>
<g>
	<g>
		<g>
			<path fill="#DB719C" d="M59.67,17.359c0,9.586-7.774,17.357-17.357,17.357c-9.591,0-17.361-7.771-17.361-17.357
				C24.951,7.771,32.722,0,42.313,0C51.896,0,59.67,7.771,59.67,17.359z"/>
		</g>
		<g>
			<path fill="#DB719C" d="M43.475,34.717c39.577,0,35.114,51.785,35.114,51.785s-3.832,7.719-9.787,0
				c0,0-1.703-24.604-9.363-32.737v39.604v54.84c0,0-5.535,9.465-12.768,0l-0.424-48.006c0,0-1.353-1.574-3.354-1.777
				c-1.998,0.203-3.354,1.777-3.354,1.777l-0.424,48.006c-7.236,9.465-12.767,0-12.767,0v-54.84V53.765
				c-7.661,8.133-9.361,32.737-9.361,32.737c-5.958,7.719-9.79,0-9.79,0S2.735,34.717,42.313,34.717"/>
		</g>
	</g>
</g>
<g>
	
		<line fill="none" stroke="#FFFFFF" stroke-width="4" stroke-linecap="round" stroke-linejoin="round" stroke-miterlimit="10" x1="33.865" y1="61.809" x2="51.922" y2="61.809"/>
	
		<line fill="none" stroke="#FFFFFF" stroke-width="4" stroke-linecap="round" stroke-linejoin="round" stroke-miterlimit="10" x1="42.893" y1="52.78" x2="42.893" y2="70.837"/>
</g>
</svg>
