<?xml version="1.0" encoding="utf-8"?>
<!-- Generator: Adobe Illustrator 16.0.0, SVG Export Plug-In . SVG Version: 6.00 Build 0)  -->
<!DOCTYPE svg PUBLIC "-//W3C//DTD SVG 1.1//EN" "http://www.w3.org/Graphics/SVG/1.1/DTD/svg11.dtd">
<svg version="1.1" id="Livello_1" xmlns="http://www.w3.org/2000/svg" xmlns:xlink="http://www.w3.org/1999/xlink" x="0px" y="0px"
	 width="81.506px" height="164.018px" viewBox="0 0 81.506 164.018" enable-background="new 0 0 81.506 164.018"
	 xml:space="preserve">
<g>
	<path fill="#CD1048" d="M56.037,26.901c0,9.732-7.894,17.623-17.623,17.623c-9.738,0-17.626-7.89-17.626-17.623
		c0-9.734,7.888-17.624,17.626-17.624C48.144,9.277,56.037,17.167,56.037,26.901z"/>
	<path fill="#CD1048" d="M39.594,44.523c40.182,0,35.651,52.575,35.651,52.575s-3.892,7.837-9.937,0c0,0-1.729-24.979-9.508-33.236
		v40.208v55.678c0,0-5.619,9.607-12.961,0l-0.43-48.74c0,0-1.374-1.598-3.405-1.803c-2.029,0.205-3.404,1.803-3.404,1.803
		l-0.431,48.74c-7.347,9.607-12.961,0-12.961,0V104.07V63.861c-7.777,8.259-9.504,33.237-9.504,33.237c-6.048,7.837-9.938,0-9.938,0
		s-4.532-52.575,35.649-52.575"/>
</g>
<g>
	<g>
		<g>
			<path fill="#DB729D" d="M62.436,23.914c0,9.586-7.775,17.357-17.357,17.357c-9.592,0-17.362-7.771-17.362-17.357
				c0-9.589,7.77-17.359,17.362-17.359C54.66,6.555,62.436,14.325,62.436,23.914z"/>
		</g>
		<g>
			<path fill="#DB729D" d="M46.24,41.271c39.577,0,35.114,51.785,35.114,51.785s-3.833,7.719-9.787,0c0,0-1.704-24.604-9.364-32.737
				v39.604v54.84c0,0-5.535,9.465-12.768,0l-0.423-48.006c0,0-1.353-1.574-3.354-1.777c-1.999,0.203-3.354,1.777-3.354,1.777
				l-0.424,48.006c-7.236,9.465-12.767,0-12.767,0v-54.84V60.32c-7.661,8.133-9.361,32.737-9.361,32.737c-5.958,7.719-9.79,0-9.79,0
				S5.5,41.271,45.078,41.271"/>
		</g>
	</g>
</g>
<g>
	<path fill="#FFFFFF" stroke="#FFFFFF" stroke-linecap="round" stroke-miterlimit="10" d="M46.98,57.378v9.705h9.332v2.479H46.98
		v9.787h-2.644v-9.787h-9.332v-2.479h9.332v-9.705H46.98z"/>
</g>
</svg>
