<?xml version="1.0" encoding="utf-8"?>
<!-- Generator: Adobe Illustrator 21.0.0, SVG Export Plug-In . SVG Version: 6.00 Build 0)  -->
<svg version="1.1" id="Livello_1" xmlns="http://www.w3.org/2000/svg" xmlns:xlink="http://www.w3.org/1999/xlink" x="0px" y="0px"
	 viewBox="0 0 200 200" style="enable-background:new 0 0 200 200;" xml:space="preserve">
<style type="text/css">
	.st0{fill:#92D7F6;}
	.st1{opacity:0.5;}
	.st2{fill:none;stroke:#1D1D1B;stroke-width:8.2067;stroke-linecap:round;stroke-linejoin:round;stroke-miterlimit:10;}
	.st3{fill:#1D1D1B;stroke:#1D1D1B;stroke-width:8.2067;stroke-miterlimit:10;}
	.st4{fill:#1D1D1B;stroke:#1D1D1B;stroke-width:8.2067;stroke-linecap:round;stroke-linejoin:round;stroke-miterlimit:10;}
	.st5{fill:none;stroke:#FFFFFF;stroke-width:8.2067;stroke-linecap:round;stroke-linejoin:round;stroke-miterlimit:10;}
	.st6{fill:#92D7F6;stroke:#FFFFFF;stroke-width:8.2067;stroke-miterlimit:10;}
	.st7{fill:#FFFFFF;stroke:#FFFFFF;stroke-width:8.2067;stroke-linecap:round;stroke-linejoin:round;stroke-miterlimit:10;}
</style>
<g>
	<path class="st0" d="M0,200V21.6C0,9.7,9.7,0,21.6,0H200"/>
	<g>
		<g class="st1">
			<path class="st2" d="M71.1,108.1c-3.2,0.8-6.5,1.3-10,1.3c-22.4,0-40.6-18.3-40.6-40.6s18.1-40.6,40.6-40.6
				c4.4,0,8.7,0.8,12.7,2.1"/>
			<polygon class="st2" points="99.8,109.5 97.8,59.2 101.4,59.2 			"/>
			<path class="st3" d="M106.7,41.4c0-4.3-3-15.1-6.7-15.1s-6.7,11-6.7,15.1c0,4.3,3,7.6,6.7,7.6S106.7,45.7,106.7,41.4z"/>
			<circle class="st4" cx="56.5" cy="49" r="3.7"/>
			<circle class="st4" cx="40.2" cy="68.7" r="3.7"/>
			<circle class="st4" cx="56.5" cy="87.9" r="3.7"/>
			<path class="st2" d="M73.8,30.2c0,0,10.3,4.1,5.1,15.2c-5.1,11.1-11.7,16.2-5.1,35.7c0,0,14.4,22.2-2.9,27"/>
		</g>
		<g>
			<g>
				<path class="st5" d="M76.8,102.4c-3.2,0.8-6.5,1.3-10,1.3c-22.4,0-40.6-18.3-40.6-40.6c0.2-22.5,18.3-40.8,40.6-40.8
					c4.4,0,8.7,0.8,12.7,2.1"/>
				<polygon class="st5" points="105.6,103.8 103.7,53.3 107.1,53.3 				"/>
				<path class="st6" d="M112.5,35.6c0-4.3-3-15.1-6.7-15.1s-6.7,11-6.7,15.1c0,4.3,3,7.6,6.7,7.6C109.5,43.3,112.5,39.8,112.5,35.6
					z"/>
				<circle class="st7" cx="62.4" cy="43.3" r="3.7"/>
				<circle class="st7" cx="45.9" cy="62.9" r="3.7"/>
				<circle class="st7" cx="62.4" cy="82.2" r="3.7"/>
				<path class="st5" d="M79.7,24.3c0,0,10.3,4.1,5.1,15.2C79.7,50.6,73,55.7,79.7,75.2c0,0,14.4,22.2-2.9,27"/>
			</g>
		</g>
	</g>
</g>
</svg>
