<?xml version="1.0" encoding="utf-8"?>
<!-- Generator: Adobe Illustrator 21.0.0, SVG Export Plug-In . SVG Version: 6.00 Build 0)  -->
<svg version="1.1" id="Livello_1" xmlns="http://www.w3.org/2000/svg" xmlns:xlink="http://www.w3.org/1999/xlink" x="0px" y="0px"
	 viewBox="0 0 200 200" style="enable-background:new 0 0 200 200;" xml:space="preserve">
<style type="text/css">
	.st0{fill:#92D7F6;}
	.st1{opacity:0.5;}
	.st2{fill:none;stroke:#1D1D1B;stroke-width:8.2067;stroke-linecap:round;stroke-linejoin:round;stroke-miterlimit:10;}
	.st3{fill:none;stroke:#FFFFFF;stroke-width:8.2067;stroke-linecap:round;stroke-linejoin:round;stroke-miterlimit:10;}
</style>
<g>
	<path class="st0" d="M0,200V21.6C0,9.7,9.7,0,21.6,0H200"/>
	<g>
		<g class="st1">
			<polygon class="st2" points="94.4,114.8 23.8,114.8 32.4,55.4 85.7,55.4 			"/>
			<path class="st2" d="M43.3,50.8c0,0-1.9-21.7,15.7-21.7"/>
			<path class="st2" d="M74.8,50.8c0,0,1.9-21.7-15.7-21.7"/>
		</g>
		<g>
			<g>
				<polygon class="st3" points="100.2,108.9 29.5,108.9 38.1,49.5 91.6,49.5 				"/>
				<path class="st3" d="M49.2,45.1c0,0-1.9-21.7,15.7-21.7"/>
				<path class="st3" d="M80.6,45.1c0,0,1.9-21.7-15.7-21.7"/>
			</g>
		</g>
	</g>
</g>
</svg>
