<?xml version="1.0" encoding="utf-8"?>
<!-- Generator: Adobe Illustrator 21.0.0, SVG Export Plug-In . SVG Version: 6.00 Build 0)  -->
<svg version="1.1" id="Livello_1" xmlns="http://www.w3.org/2000/svg" xmlns:xlink="http://www.w3.org/1999/xlink" x="0px" y="0px"
	 viewBox="0 0 200 200" style="enable-background:new 0 0 200 200;" xml:space="preserve">
<style type="text/css">
	.st0{fill:#92D7F6;}
	.st1{opacity:0.5;}
	.st2{fill:none;stroke:#1D1D1B;stroke-width:8.2067;stroke-linecap:round;stroke-linejoin:round;stroke-miterlimit:10;}
	.st3{fill:none;stroke:#FFFFFF;stroke-width:8.2067;stroke-linecap:round;stroke-linejoin:round;stroke-miterlimit:10;}
</style>
<g>
	<path class="st0" d="M0,200V21.6C0,9.7,9.7,0,21.6,0H200"/>
	<g>
		<g class="st1">
			<ellipse class="st2" cx="48.3" cy="55.1" rx="28.7" ry="28.7"/>
			<ellipse class="st2" cx="98.3" cy="70.5" rx="22.9" ry="22.9"/>
			<polyline class="st2" points="47.6,49.7 47.6,64 47.6,108.7 			"/>
			<line class="st2" x1="57.8" y1="58.1" x2="47.6" y2="64"/>
			<line class="st2" x1="47.6" y1="66" x2="36.2" y2="58.1"/>
			<polyline class="st2" points="99.8,65.1 99.8,75.7 99.8,108.7 			"/>
			<line class="st2" x1="99.8" y1="81.4" x2="88.4" y2="73.5"/>
		</g>
		<g>
			<g>
				<ellipse class="st3" cx="54" cy="49.2" rx="28.7" ry="28.7"/>
				<ellipse class="st3" cx="104.1" cy="64.6" rx="22.9" ry="22.9"/>
				<polyline class="st3" points="53.5,43.8 53.5,58.3 53.5,102.9 				"/>
				<line class="st3" x1="63.7" y1="52.2" x2="53.5" y2="58.3"/>
				<line class="st3" x1="53.5" y1="60.3" x2="42.1" y2="52.2"/>
				<polyline class="st3" points="105.6,59.2 105.6,69.8 105.6,102.9 				"/>
				<line class="st3" x1="105.6" y1="75.7" x2="94.3" y2="67.6"/>
			</g>
		</g>
	</g>
</g>
</svg>
