<?xml version="1.0" encoding="utf-8"?>
<!-- Generator: Adobe Illustrator 16.0.0, SVG Export Plug-In . SVG Version: 6.00 Build 0)  -->
<!DOCTYPE svg PUBLIC "-//W3C//DTD SVG 1.1//EN" "http://www.w3.org/Graphics/SVG/1.1/DTD/svg11.dtd">
<svg version="1.1" id="Livello_1" xmlns="http://www.w3.org/2000/svg" xmlns:xlink="http://www.w3.org/1999/xlink" x="0px" y="0px"
	 width="82.698px" height="163.017px" viewBox="0 0 82.698 163.017" enable-background="new 0 0 82.698 163.017"
	 xml:space="preserve">
<g>
	<path fill="#CD1048" d="M57.23,25.899c0,9.732-7.895,17.623-17.623,17.623c-9.738,0-17.626-7.89-17.626-17.623
		c0-9.734,7.888-17.624,17.626-17.624C49.336,8.275,57.23,16.165,57.23,25.899z"/>
	<path fill="#CD1048" d="M40.787,43.522c40.182,0,35.65,52.576,35.65,52.576s-3.891,7.836-9.936,0c0,0-1.73-24.979-9.508-33.237
		v40.208v55.677c0,0-5.619,9.607-12.961,0l-0.431-48.739c0,0-1.374-1.599-3.405-1.804c-2.029,0.205-3.404,1.804-3.404,1.804
		l-0.431,48.739c-7.347,9.607-12.962,0-12.962,0v-55.677V62.86c-7.777,8.259-9.503,33.238-9.503,33.238
		c-6.049,7.836-9.938,0-9.938,0s-4.532-52.576,35.649-52.576"/>
</g>
<g>
	<g>
		<g>
			<path fill="#FFFFFF" d="M63.627,22.913c0,9.586-7.773,17.357-17.356,17.357c-9.591,0-17.361-7.771-17.361-17.357
				c0-9.589,7.771-17.359,17.361-17.359C55.854,5.553,63.627,13.324,63.627,22.913z"/>
		</g>
		<g>
			<path fill="#FFFFFF" d="M47.433,40.27c39.577,0,35.114,51.785,35.114,51.785s-3.832,7.719-9.787,0c0,0-1.703-24.604-9.363-32.736
				v39.604v54.84c0,0-5.535,9.465-12.768,0l-0.424-48.006c0,0-1.353-1.574-3.354-1.777c-1.998,0.203-3.354,1.777-3.354,1.777
				l-0.424,48.006c-7.236,9.465-12.767,0-12.767,0v-54.84V59.318c-7.661,8.133-9.361,32.736-9.361,32.736
				c-5.958,7.719-9.79,0-9.79,0S6.693,40.27,46.271,40.27"/>
		</g>
	</g>
</g>
</svg>
