<?xml version="1.0" encoding="utf-8"?>
<!-- Generator: Adobe Illustrator 16.0.0, SVG Export Plug-In . SVG Version: 6.00 Build 0)  -->
<!DOCTYPE svg PUBLIC "-//W3C//DTD SVG 1.1//EN" "http://www.w3.org/Graphics/SVG/1.1/DTD/svg11.dtd">
<svg version="1.1" id="Livello_1" xmlns="http://www.w3.org/2000/svg" xmlns:xlink="http://www.w3.org/1999/xlink" x="0px" y="0px"
	 width="286.853px" height="301.915px" viewBox="0 0 286.853 301.915" enable-background="new 0 0 286.853 301.915"
	 xml:space="preserve">
<circle fill="#CD1048" cx="176.173" cy="88.882" r="80.122"/>
<g>
	<path fill="#E62451" d="M212.063,153.521c-38.482,0-69.79-31.308-69.79-69.79c0-38.482,31.308-69.791,69.79-69.791
		c38.481,0,69.789,31.308,69.789,69.791C281.853,122.214,250.545,153.521,212.063,153.521z"/>
	<path fill="#FFFFFF" d="M212.063,18.941c35.725,0,64.789,29.065,64.789,64.791c0,35.725-29.064,64.79-64.789,64.79
		c-35.726,0-64.79-29.064-64.79-64.79C147.273,48.006,176.338,18.941,212.063,18.941 M212.063,8.941
		c-41.306,0-74.79,33.484-74.79,74.791c0,41.305,33.484,74.79,74.79,74.79c41.305,0,74.789-33.485,74.789-74.79
		C286.853,42.426,253.368,8.941,212.063,8.941L212.063,8.941z"/>
</g>
<g>
	<path fill="#FFFFFF" d="M231.516,101.307c-5.065,4.91-12.243,8.16-19.573,8.16c-12.09,0-22.141-7.405-25.844-17.91h-8.541v-3.854
		h7.481c-0.302-1.663-0.452-3.324-0.452-5.062c0-1.664,0.15-3.25,0.452-4.838h-7.481v-3.854h8.465
		c3.701-10.427,13.904-17.832,26.148-17.832c7.254,0,14.357,2.946,19.268,7.706l-3.475,4.611c-4.156-4.157-9.825-6.65-15.719-6.65
		c-8.767,0-16.248,4.911-19.649,12.166h20.48v3.854h-21.766c-0.376,1.513-0.602,3.175-0.602,4.838c0,1.738,0.226,3.474,0.602,5.062
		h21.766v3.854h-20.33c3.478,7.104,10.884,11.94,19.499,11.94c5.742,0,11.412-2.418,15.719-6.349L231.516,101.307z"/>
</g>
<circle fill="#CD1048" cx="126.608" cy="150.446" r="80.122"/>
<circle fill="#CD1048" cx="80.122" cy="221.791" r="80.122"/>
<circle fill="#E62451" stroke="#FFFFFF" stroke-width="10" stroke-miterlimit="10" cx="162.499" cy="145.296" r="74.79"/>
<g>
	<path fill="#FFFFFF" d="M181.951,162.871c-5.065,4.909-12.243,8.159-19.573,8.159c-12.09,0-22.141-7.405-25.844-17.909h-8.541
		v-3.854h7.481c-0.302-1.663-0.452-3.324-0.452-5.062c0-1.664,0.15-3.25,0.452-4.839h-7.481v-3.854h8.465
		c3.701-10.427,13.904-17.832,26.148-17.832c7.254,0,14.357,2.946,19.268,7.706l-3.475,4.611c-4.156-4.157-9.825-6.65-15.719-6.65
		c-8.767,0-16.248,4.911-19.649,12.166h20.48v3.854h-21.766c-0.376,1.514-0.602,3.175-0.602,4.839c0,1.737,0.226,3.474,0.602,5.062
		h21.766v3.854h-20.33c3.478,7.104,10.884,11.939,19.499,11.939c5.742,0,11.412-2.418,15.719-6.349L181.951,162.871z"/>
</g>
<circle fill="#E62451" stroke="#FFFFFF" stroke-width="10" stroke-miterlimit="10" cx="112.942" cy="211.835" r="74.79"/>
<g>
	<path fill="#FFFFFF" d="M132.395,229.409c-5.064,4.91-12.243,8.16-19.573,8.16c-12.089,0-22.141-7.404-25.844-17.91h-8.54v-3.853
		h7.48c-0.303-1.663-0.453-3.325-0.453-5.063c0-1.662,0.15-3.25,0.453-4.837h-7.48v-3.854h8.465
		c3.701-10.428,13.903-17.831,26.146-17.831c7.255,0,14.358,2.944,19.269,7.704l-3.475,4.611c-4.156-4.156-9.825-6.65-15.719-6.65
		c-8.766,0-16.248,4.912-19.648,12.166h20.48v3.854H92.19c-0.377,1.513-0.602,3.175-0.602,4.837c0,1.738,0.225,3.475,0.602,5.063
		h21.766v3.853h-20.33c3.478,7.105,10.883,11.941,19.498,11.941c5.743,0,11.412-2.418,15.719-6.35L132.395,229.409z"/>
</g>
</svg>
