<?xml version="1.0" encoding="utf-8"?>
<!-- Generator: Adobe Illustrator 16.0.0, SVG Export Plug-In . SVG Version: 6.00 Build 0)  -->
<!DOCTYPE svg PUBLIC "-//W3C//DTD SVG 1.1//EN" "http://www.w3.org/Graphics/SVG/1.1/DTD/svg11.dtd">
<svg version="1.1" id="Livello_1" xmlns="http://www.w3.org/2000/svg" xmlns:xlink="http://www.w3.org/1999/xlink" x="0px" y="0px"
	 width="344.667px" height="378.509px" viewBox="0 0 344.667 378.509" enable-background="new 0 0 344.667 378.509"
	 xml:space="preserve">
<circle fill="#FFFFFF" cx="119.843" cy="258.668" r="119.843"/>
<circle fill="#FFFFFF" cx="165.997" cy="189.746" r="119.843"/>
<circle fill="#FFFFFF" cx="224.824" cy="119.225" r="119.843"/>
<circle fill="#FFFFFF" stroke="#E62451" stroke-width="10" stroke-miterlimit="10" cx="217.612" cy="129.891" r="74.79"/>
<g>
	<path fill="#E62451" d="M237.064,147.466c-5.065,4.909-12.243,8.159-19.573,8.159c-12.09,0-22.141-7.404-25.844-17.909h-8.541
		v-3.854h7.481c-0.302-1.662-0.452-3.324-0.452-5.062c0-1.663,0.15-3.25,0.452-4.839h-7.481v-3.854h8.465
		c3.701-10.427,13.904-17.832,26.148-17.832c7.254,0,14.357,2.946,19.268,7.706l-3.475,4.61c-4.156-4.156-9.825-6.649-15.719-6.649
		c-8.767,0-16.248,4.911-19.649,12.165h20.48v3.854h-21.766c-0.376,1.514-0.602,3.176-0.602,4.839c0,1.737,0.226,3.474,0.602,5.062
		h21.766v3.854h-20.33c3.478,7.104,10.884,11.94,19.499,11.94c5.742,0,11.412-2.418,15.719-6.35L237.064,147.466z"/>
</g>
<circle fill="#FFFFFF" stroke="#E62451" stroke-width="10" stroke-miterlimit="10" cx="168.047" cy="191.456" r="74.79"/>
<g>
	<path fill="#E62451" d="M187.5,209.03c-5.065,4.91-12.243,8.16-19.573,8.16c-12.09,0-22.141-7.405-25.844-17.91h-8.541v-3.854
		h7.481c-0.302-1.663-0.452-3.324-0.452-5.063c0-1.663,0.15-3.25,0.452-4.838h-7.481v-3.854h8.465
		c3.701-10.428,13.904-17.832,26.148-17.832c7.254,0,14.357,2.945,19.268,7.705l-3.475,4.611c-4.156-4.156-9.825-6.65-15.719-6.65
		c-8.767,0-16.248,4.912-19.649,12.166h20.48v3.854h-21.766c-0.376,1.514-0.602,3.175-0.602,4.838c0,1.738,0.226,3.475,0.602,5.063
		h21.766v3.854h-20.33c3.478,7.104,10.884,11.94,19.499,11.94c5.742,0,11.412-2.418,15.719-6.349L187.5,209.03z"/>
</g>
<circle fill="#FFFFFF" stroke="#E62451" stroke-width="10" stroke-miterlimit="10" cx="118.491" cy="257.995" r="74.79"/>
<g>
	<path fill="#E62451" d="M137.943,275.569c-5.064,4.91-12.243,8.16-19.573,8.16c-12.089,0-22.141-7.404-25.844-17.91h-8.54v-3.854
		h7.48c-0.303-1.662-0.453-3.324-0.453-5.063c0-1.662,0.15-3.25,0.453-4.838h-7.48v-3.854h8.465
		c3.701-10.428,13.903-17.832,26.146-17.832c7.255,0,14.358,2.945,19.269,7.705l-3.475,4.611c-4.156-4.156-9.825-6.65-15.719-6.65
		c-8.766,0-16.248,4.912-19.648,12.166h20.48v3.854H97.739c-0.377,1.514-0.602,3.176-0.602,4.838c0,1.738,0.225,3.475,0.602,5.063
		h21.766v3.854h-20.33c3.478,7.105,10.883,11.941,19.498,11.941c5.743,0,11.412-2.418,15.719-6.35L137.943,275.569z"/>
</g>
</svg>
