<?xml version="1.0" encoding="utf-8"?>
<!-- Generator: Adobe Illustrator 21.0.0, SVG Export Plug-In . SVG Version: 6.00 Build 0)  -->
<svg version="1.1" id="Livello_1" xmlns="http://www.w3.org/2000/svg" xmlns:xlink="http://www.w3.org/1999/xlink" x="0px" y="0px"
	 viewBox="0 0 200 200" style="enable-background:new 0 0 200 200;" xml:space="preserve">
<style type="text/css">
	.st0{fill:#E52050;stroke:#FFFFFF;stroke-width:8.1833;stroke-linecap:round;stroke-linejoin:round;stroke-miterlimit:10;}
	.st1{fill:#FFFFFF;}
	.st2{fill:#E52050;stroke:#FFFFFF;stroke-width:1.2135;stroke-linecap:round;stroke-linejoin:round;stroke-miterlimit:10;}
	.st3{fill:#E52050;stroke:#FFFFFF;stroke-width:0.6105;stroke-linecap:round;stroke-linejoin:round;stroke-miterlimit:10;}
	.st4{fill:none;stroke:#FFFFFF;stroke-width:4.1021;stroke-linecap:round;stroke-linejoin:round;stroke-miterlimit:10;}
</style>
<g>
	<path class="st0" d="M169.7,55.6v-26c0-6-4.8-10.8-10.8-10.8H17.4c-6,0-10.8,4.8-10.8,10.8v141.5c0,6,4.8,10.8,10.8,10.8h141.5
		c6,0,10.8-4.8,10.8-10.8v-65.4l25.1-25.1L169.7,55.6z"/>
	<g>
		<path class="st1" d="M95,92.1c0,23.6-26.7,45.5-26.7,45.5c-1.6,1.3-4.1,1.3-5.7,0c0,0-26.7-21.9-26.7-45.5
			c0-16.3,13.2-29.5,29.5-29.5S95,75.8,95,92.1z"/>
		<path class="st2" d="M65.5,107c-8.2,0-14.8-6.7-14.8-14.8s6.7-14.8,14.8-14.8S80.4,84,80.4,92.1S73.7,107,65.5,107z"/>
	</g>
	<g>
		<path class="st1" d="M142,87.9c0,11.9-13.4,22.9-13.4,22.9c-0.8,0.6-2.1,0.6-2.8,0c0,0-13.4-11-13.4-22.9
			c0-8.2,6.6-14.8,14.8-14.8S142,79.7,142,87.9z"/>
		<path class="st3" d="M127.2,95.3c-4.1,0-7.5-3.3-7.5-7.5s3.3-7.5,7.5-7.5c4.1,0,7.5,3.3,7.5,7.5S131.3,95.3,127.2,95.3z"/>
	</g>
	<path class="st4" d="M71.2,142.8c0,0,37.3,12.8,55-26.5"/>
</g>
</svg>
