<?xml version="1.0" encoding="utf-8"?>
<!-- Generator: Adobe Illustrator 21.0.0, SVG Export Plug-In . SVG Version: 6.00 Build 0)  -->
<svg version="1.1" id="Livello_1" xmlns="http://www.w3.org/2000/svg" xmlns:xlink="http://www.w3.org/1999/xlink" x="0px" y="0px"
	 viewBox="0 0 200 200" style="enable-background:new 0 0 200 200;" xml:space="preserve">
<style type="text/css">
	.st0{fill:#FFEC00;}
	.st1{fill:none;stroke:#92D7F6;stroke-width:11.9839;stroke-linecap:round;stroke-miterlimit:10;}
</style>
<g>
	<circle class="st0" cx="83.5" cy="69.6" r="67.4"/>
	<path class="st1" d="M154.2,110.7c3.1-3.6,7.7-6,12.8-6c9.3,0,16.8,7.5,16.8,16.8c0,9.3-7.5,16.8-16.8,16.8H54.3"/>
	<path class="st1" d="M129.1,187.7c3.1,3.6,7.7,6,12.8,6c9.3,0,16.8-7.5,16.8-16.8s-7.5-16.8-16.8-16.8H54.3"/>
	<path class="st1" d="M95.7,91c3.1-3.6,7.7-6,12.8-6c9.3,0,16.8,7.5,16.8,16.8s-7.5,16.8-16.8,16.8H55.4"/>
</g>
</svg>
