<?xml version="1.0" encoding="utf-8"?>
<!-- Generator: Adobe Illustrator 21.0.0, SVG Export Plug-In . SVG Version: 6.00 Build 0)  -->
<svg version="1.1" id="Livello_1" xmlns="http://www.w3.org/2000/svg" xmlns:xlink="http://www.w3.org/1999/xlink" x="0px" y="0px"
	 viewBox="0 0 200 200" style="enable-background:new 0 0 200 200;" xml:space="preserve">
<style type="text/css">
	.st0{fill:#E52251;}
	.st1{opacity:0.5;}
	.st2{fill:none;stroke:#1D1D1B;stroke-width:8.2067;stroke-linecap:round;stroke-linejoin:round;stroke-miterlimit:10;}
	.st3{fill:#1D1D1B;stroke:#1D1D1B;stroke-width:2.0517;stroke-linejoin:round;stroke-miterlimit:10;}
	.st4{fill:none;stroke:#FFFFFF;stroke-width:8.2067;stroke-linecap:round;stroke-linejoin:round;stroke-miterlimit:10;}
	.st5{fill:#FFFFFF;stroke:#FFFFFF;stroke-width:2.0517;stroke-linejoin:round;stroke-miterlimit:10;}
</style>
<g>
	<path class="st0" d="M0,200V21.6C0,9.7,9.7,0,21.6,0H200"/>
	<g>
		<g class="st1">
			<rect x="25.4" y="34" class="st2" width="74.9" height="77"/>
			<line class="st2" x1="41" y1="26.3" x2="41" y2="41.7"/>
			<line class="st2" x1="85.4" y1="26.3" x2="85.4" y2="41.7"/>
			<rect x="38.6" y="58.6" class="st3" width="7.3" height="7.3"/>
			<rect x="52.4" y="58.6" class="st3" width="7.3" height="7.3"/>
			<rect x="66.2" y="58.6" class="st3" width="7.3" height="7.3"/>
			<rect x="80" y="58.6" class="st3" width="7.3" height="7.3"/>
			<rect x="38.6" y="73.5" class="st3" width="7.3" height="7.3"/>
			<rect x="52.4" y="73.5" class="st3" width="7.3" height="7.3"/>
			<rect x="66.2" y="73.5" class="st3" width="7.3" height="7.3"/>
			<rect x="80" y="73.5" class="st3" width="7.3" height="7.3"/>
			<rect x="38.6" y="88.4" class="st3" width="7.3" height="7.3"/>
			<rect x="52.4" y="88.4" class="st3" width="7.3" height="7.3"/>
		</g>
		<g>
			<g>
				<g>
					<rect x="31.3" y="28.3" class="st4" width="74.9" height="77"/>
				</g>
				<g>
					<line class="st4" x1="46.8" y1="20.5" x2="46.8" y2="36"/>
				</g>
				<g>
					<line class="st4" x1="91.3" y1="20.5" x2="91.3" y2="36"/>
				</g>
				<g>
					<g>
						<rect x="44.4" y="52.9" class="st5" width="7.3" height="7.3"/>
						<rect x="58.3" y="52.9" class="st5" width="7.3" height="7.3"/>
						<rect x="72.1" y="52.9" class="st5" width="7.3" height="7.3"/>
						<rect x="85.9" y="52.9" class="st5" width="7.3" height="7.3"/>
					</g>
					<rect x="44.4" y="67.8" class="st5" width="7.3" height="7.3"/>
					<rect x="58.3" y="67.8" class="st5" width="7.3" height="7.3"/>
					<rect x="72.1" y="67.8" class="st5" width="7.3" height="7.3"/>
					<rect x="85.9" y="67.8" class="st5" width="7.3" height="7.3"/>
					<rect x="44.4" y="82.7" class="st5" width="7.3" height="7.3"/>
					<rect x="58.3" y="82.7" class="st5" width="7.3" height="7.3"/>
				</g>
			</g>
		</g>
	</g>
</g>
</svg>
