<?xml version="1.0" encoding="utf-8"?>
<!-- Generator: Adobe Illustrator 21.0.0, SVG Export Plug-In . SVG Version: 6.00 Build 0)  -->
<svg version="1.1" id="Livello_1" xmlns="http://www.w3.org/2000/svg" xmlns:xlink="http://www.w3.org/1999/xlink" x="0px" y="0px"
	 viewBox="0 0 200 200" style="enable-background:new 0 0 200 200;" xml:space="preserve">
<style type="text/css">
	.st0{fill:#92D7F6;}
	.st1{opacity:0.5;}
	.st2{fill:none;stroke:#1D1D1B;stroke-width:8.2067;stroke-linecap:round;stroke-linejoin:round;stroke-miterlimit:10;}
	.st3{fill:none;stroke:#FFFFFF;stroke-width:8.2067;stroke-linecap:round;stroke-linejoin:round;stroke-miterlimit:10;}
</style>
<g>
	<path class="st0" d="M0,200V21.6C0,9.7,9.7,0,21.6,0H200"/>
	<g>
		<g class="st1">
			<polygon class="st2" points="91.4,47.8 57.6,26.3 23.8,47.8 			"/>
			<line class="st2" x1="29.2" y1="63" x2="29.2" y2="98.7"/>
			<line class="st2" x1="48.3" y1="63" x2="48.3" y2="98.7"/>
			<line class="st2" x1="67.3" y1="63" x2="67.3" y2="98.7"/>
			<line class="st2" x1="85.2" y1="63" x2="85.2" y2="98.7"/>
			<line class="st2" x1="93.2" y1="112.4" x2="22.2" y2="112.4"/>
		</g>
		<g>
			<g>
				<g>
					<polygon class="st3" points="97.3,41.9 63.5,20.5 29.7,41.9 					"/>
				</g>
				<line class="st3" x1="35.1" y1="57.1" x2="35.1" y2="92.9"/>
				<line class="st3" x1="54" y1="57.1" x2="54" y2="92.9"/>
				<line class="st3" x1="73.2" y1="57.1" x2="73.2" y2="92.9"/>
				<line class="st3" x1="91.1" y1="57.1" x2="91.1" y2="92.9"/>
				<line class="st3" x1="99" y1="106.5" x2="28.1" y2="106.5"/>
			</g>
		</g>
	</g>
</g>
</svg>
