<?xml version="1.0" encoding="utf-8"?>
<!-- Generator: Adobe Illustrator 21.0.0, SVG Export Plug-In . SVG Version: 6.00 Build 0)  -->
<svg version="1.1" id="Livello_1" xmlns="http://www.w3.org/2000/svg" xmlns:xlink="http://www.w3.org/1999/xlink" x="0px" y="0px"
	 viewBox="0 0 200 200" style="enable-background:new 0 0 200 200;" xml:space="preserve">
<style type="text/css">
	.st0{fill:#9C9B9B;}
	.st1{fill:none;stroke:#FFEC00;stroke-width:14.8571;stroke-linecap:round;stroke-linejoin:round;stroke-miterlimit:10;}
</style>
<g>
	<path class="st0" d="M41.8,102.6c-17.2,0-31.2-14-31.2-31.1c0-17.2,14-31.2,31.2-31.2S73,54.3,73,71.5C73,88.7,59,102.6,41.8,102.6
		"/>
	<circle class="st0" cx="100.8" cy="52.3" r="50.4"/>
	<path class="st0" d="M151.9,102.6c20.7,0,37.5-16.8,37.5-37.5s-16.8-37.5-37.5-37.5s-37.5,16.8-37.5,37.5S131.2,102.6,151.9,102.6"
		/>
	<rect x="41.8" y="76.6" class="st0" width="110.2" height="26"/>
	<polyline class="st1" points="101.4,116.7 96.1,139.6 114.4,139.6 100,192.1 	"/>
</g>
</svg>
