<?xml version="1.0" encoding="utf-8"?>
<!-- Generator: Adobe Illustrator 21.0.0, SVG Export Plug-In . SVG Version: 6.00 Build 0)  -->
<svg version="1.1" id="Livello_1" xmlns="http://www.w3.org/2000/svg" xmlns:xlink="http://www.w3.org/1999/xlink" x="0px" y="0px"
	 viewBox="0 0 200 200" style="enable-background:new 0 0 200 200;" xml:space="preserve">
<style type="text/css">
	.st0{fill:#ECECEC;}
	.st1{fill:none;stroke:#92D7F6;stroke-width:12.7552;stroke-linecap:round;stroke-miterlimit:10;}
</style>
<g>
	<g>
		<path class="st0" d="M37.5,111.9C19,111.9,4,96.9,4,78.4s15-33.5,33.5-33.5S71,60,71,78.4C71,96.9,56,111.9,37.5,111.9"/>
		<circle class="st0" cx="100.8" cy="57.9" r="54"/>
		<path class="st0" d="M155.7,111.9c22.2,0,40.3-18,40.3-40.3s-18-40.3-40.3-40.3s-40.3,18-40.3,40.3S133.5,111.9,155.7,111.9"/>
		<rect x="37.5" y="84" class="st0" width="118.2" height="27.9"/>
	</g>
	<line class="st1" x1="59.6" y1="190.1" x2="74.4" y2="127"/>
	<line class="st1" x1="90" y1="176.1" x2="101.5" y2="127"/>
	<line class="st1" x1="115.6" y1="192.2" x2="130.8" y2="127"/>
</g>
</svg>
