<?xml version="1.0" encoding="utf-8"?>
<!-- Generator: Adobe Illustrator 21.0.0, SVG Export Plug-In . SVG Version: 6.00 Build 0)  -->
<svg version="1.1" id="Livello_1" xmlns="http://www.w3.org/2000/svg" xmlns:xlink="http://www.w3.org/1999/xlink" x="0px" y="0px"
	 viewBox="0 0 200 200" style="enable-background:new 0 0 200 200;" xml:space="preserve">
<style type="text/css">
	.st0{fill:#E52050;stroke:#FFFFFF;stroke-width:8.1833;stroke-linecap:round;stroke-linejoin:round;stroke-miterlimit:10;}
	.st1{fill:#FFFFFF;}
</style>
<path class="st0" d="M169.7,55.6v-26c0-6-4.8-10.8-10.8-10.8H17.4c-6,0-10.8,4.8-10.8,10.8v141.5c0,6,4.8,10.8,10.8,10.8h141.5
	c6,0,10.8-4.8,10.8-10.8v-65.4l25.1-25.1L169.7,55.6z"/>
<g>
	<g>
		<path class="st1" d="M85.2,135.6c-4.6,4.6-12.1,4.6-16.8,0l-26-26c-4.6-4.6-4.6-12.1,0-16.8c4.6-4.6,12.1-4.6,16.8,0l15.5,15.5
			c1.2,1.2,3.1,1.2,4.2,0l41.9-41.9c4.6-4.6,12.1-4.6,16.8,0c2.2,2.2,3.5,5.2,3.5,8.4c0,3.1-1.2,6.2-3.5,8.4L85.2,135.6z"/>
	</g>
</g>
</svg>
