<?xml version="1.0" encoding="utf-8"?>
<!-- Generator: Adobe Illustrator 21.0.0, SVG Export Plug-In . SVG Version: 6.00 Build 0)  -->
<svg version="1.1" id="Livello_1" xmlns="http://www.w3.org/2000/svg" xmlns:xlink="http://www.w3.org/1999/xlink" x="0px" y="0px"
	 viewBox="0 0 200 200" style="enable-background:new 0 0 200 200;" xml:space="preserve">
<style type="text/css">
	.st0{fill:#ECECEC;}
	.st1{fill:none;stroke:#D9D9D9;stroke-width:9.2674;stroke-linecap:round;stroke-miterlimit:10;}
</style>
<g>
	<g>
		<path class="st0" d="M39.4,108.5C21.5,108.5,7,94,7,76s14.5-32.4,32.4-32.4S71.9,58.1,71.9,76S57.4,108.5,39.4,108.5"/>
		<circle class="st0" cx="100.8" cy="56" r="52.4"/>
		<path class="st0" d="M154,108.5c21.6,0,39-17.5,39-39s-17.5-39-39-39s-39,17.5-39,39S132.4,108.5,154,108.5"/>
		<rect x="39.4" y="81.4" class="st0" width="114.6" height="27.1"/>
	</g>
	<line class="st1" x1="29.7" y1="166.6" x2="87.9" y2="166.6"/>
	<line class="st1" x1="58.8" y1="136.1" x2="58.8" y2="194.3"/>
	<line class="st1" x1="37.2" y1="145.6" x2="78.4" y2="186.8"/>
	<line class="st1" x1="79.4" y1="144.6" x2="38.3" y2="185.8"/>
	<line class="st1" x1="99.1" y1="117.9" x2="157.4" y2="117.9"/>
	<line class="st1" x1="128.2" y1="87.4" x2="128.2" y2="145.6"/>
	<line class="st1" x1="106.7" y1="96.9" x2="147.8" y2="138.1"/>
	<line class="st1" x1="148.8" y1="96" x2="107.6" y2="137.1"/>
</g>
</svg>
