<?xml version="1.0" encoding="utf-8"?>
<!-- Generator: Adobe Illustrator 21.0.0, SVG Export Plug-In . SVG Version: 6.00 Build 0)  -->
<svg version="1.1" id="Livello_1" xmlns="http://www.w3.org/2000/svg" xmlns:xlink="http://www.w3.org/1999/xlink" x="0px" y="0px"
	 viewBox="0 0 200 200" style="enable-background:new 0 0 200 200;" xml:space="preserve">
<style type="text/css">
	.st0{fill:#E52050;stroke:#FFFFFF;stroke-width:8.1833;stroke-linecap:round;stroke-linejoin:round;stroke-miterlimit:10;}
	.st1{fill:#FFFFFF;}
</style>
<g>
	<path class="st0" d="M169.7,55.6v-26c0-6-4.8-10.8-10.8-10.8H17.4c-6,0-10.8,4.8-10.8,10.8v141.5c0,6,4.8,10.8,10.8,10.8h141.5
		c6,0,10.8-4.8,10.8-10.8v-65.4l25.1-25.1L169.7,55.6z"/>
	<g>
		<g id="Pencil">
			<g>
				<path class="st1" d="M137.2,78.1l-25.1-25.1c-0.7-0.7-1.6-1.1-2.6-1.1c-0.9,0-1.9,0.3-2.6,1.1l-65.6,65.6v30.3h30.3l65.6-65.6
					c0.7-0.7,1.1-1.6,1.1-2.6C138.3,79.7,137.9,78.8,137.2,78.1z M50.5,139.7v-14.8l14.8,14.8H50.5z M73.4,135l-18.2-18.2l42-42
					L115.4,93L73.4,135z M121.8,86.5l-18.2-18.2l5.9-5.9l18.2,18.2L121.8,86.5z"/>
			</g>
		</g>
	</g>
</g>
</svg>
