<?xml version="1.0" encoding="utf-8"?>
<!-- Generator: Adobe Illustrator 16.0.0, SVG Export Plug-In . SVG Version: 6.00 Build 0)  -->
<!DOCTYPE svg PUBLIC "-//W3C//DTD SVG 1.1//EN" "http://www.w3.org/Graphics/SVG/1.1/DTD/svg11.dtd">
<svg version="1.1" id="Livello_1" xmlns="http://www.w3.org/2000/svg" xmlns:xlink="http://www.w3.org/1999/xlink" x="0px" y="0px"
	 width="201px" height="171.939px" viewBox="0 0 201 171.939" enable-background="new 0 0 201 171.939" xml:space="preserve">
<circle fill="#CD1048" cx="86.951" cy="91.816" r="80.122"/>
<circle fill="#E62451" stroke="#FFFFFF" stroke-width="10" stroke-miterlimit="10" cx="119.771" cy="81.86" r="74.79"/>
<path fill="#FFFFFF" d="M139.224,99.435c-5.064,4.91-12.243,8.16-19.573,8.16c-12.089,0-22.141-7.404-25.844-17.91h-8.54v-3.854
	h7.48c-0.303-1.662-0.453-3.324-0.453-5.063c0-1.662,0.15-3.25,0.453-4.838h-7.48v-3.854h8.465
	c3.701-10.428,13.903-17.832,26.146-17.832c7.255,0,14.358,2.945,19.269,7.705l-3.475,4.611c-4.156-4.156-9.825-6.65-15.719-6.65
	c-8.766,0-16.248,4.912-19.648,12.166h20.48v3.854H99.02c-0.377,1.514-0.602,3.176-0.602,4.838c0,1.738,0.225,3.475,0.602,5.063
	h21.766v3.854h-20.33c3.478,7.105,10.883,11.941,19.498,11.941c5.743,0,11.412-2.418,15.719-6.35L139.224,99.435z"/>
</svg>
