<?xml version="1.0" encoding="utf-8"?>
<!-- Generator: Adobe Illustrator 16.0.0, SVG Export Plug-In . SVG Version: 6.00 Build 0)  -->
<!DOCTYPE svg PUBLIC "-//W3C//DTD SVG 1.1//EN" "http://www.w3.org/Graphics/SVG/1.1/DTD/svg11.dtd">
<svg version="1.1" id="Livello_1" xmlns="http://www.w3.org/2000/svg" xmlns:xlink="http://www.w3.org/1999/xlink" x="0px" y="0px"
	 width="239.687px" height="239.686px" viewBox="0 0 239.687 239.686" enable-background="new 0 0 239.687 239.686"
	 xml:space="preserve">
<circle fill="#FFFFFF" cx="119.843" cy="119.843" r="119.843"/>
<g>
	<circle fill="none" stroke="#E62451" stroke-width="10" stroke-miterlimit="10" cx="119.843" cy="123.359" r="74.79"/>
	<g>
		<path fill="#E62451" d="M139.296,140.934c-5.065,4.911-12.244,8.159-19.574,8.159c-12.089,0-22.141-7.404-25.844-17.908h-8.54
			v-3.855h7.481c-0.302-1.661-0.452-3.324-0.452-5.062c0-1.663,0.15-3.249,0.452-4.837h-7.481v-3.854h8.465
			c3.701-10.429,13.903-17.834,26.147-17.834c7.254,0,14.357,2.946,19.268,7.708l-3.474,4.609c-4.156-4.156-9.825-6.65-15.719-6.65
			c-8.767,0-16.248,4.912-19.649,12.167h20.48v3.854H99.091c-0.377,1.512-0.602,3.174-0.602,4.837c0,1.737,0.225,3.475,0.602,5.062
			h21.766v3.855h-20.33c3.478,7.104,10.883,11.939,19.499,11.939c5.742,0,11.411-2.418,15.719-6.348L139.296,140.934z"/>
	</g>
</g>
</svg>
