<?xml version="1.0" encoding="utf-8"?>
<!-- Generator: Adobe Illustrator 16.0.0, SVG Export Plug-In . SVG Version: 6.00 Build 0)  -->
<!DOCTYPE svg PUBLIC "-//W3C//DTD SVG 1.1//EN" "http://www.w3.org/Graphics/SVG/1.1/DTD/svg11.dtd">
<svg version="1.1" id="Livello_1" xmlns="http://www.w3.org/2000/svg" xmlns:xlink="http://www.w3.org/1999/xlink" x="0px" y="0px"
	 width="285.84px" height="308.607px" viewBox="0 0 285.84 308.607" enable-background="new 0 0 285.84 308.607"
	 xml:space="preserve">
<circle fill="#FFFFFF" cx="119.843" cy="188.766" r="119.843"/>
<circle fill="#FFFFFF" cx="165.997" cy="119.843" r="119.843"/>
<circle fill="#FFFFFF" stroke="#E62451" stroke-width="10" stroke-miterlimit="10" cx="167.033" cy="124.118" r="74.79"/>
<g>
	<path fill="#E62451" d="M186.485,141.692c-5.065,4.91-12.243,8.16-19.573,8.16c-12.09,0-22.141-7.406-25.844-17.91h-8.541v-3.854
		h7.481c-0.302-1.664-0.452-3.324-0.452-5.063c0-1.664,0.15-3.25,0.452-4.838h-7.481v-3.854h8.465
		c3.701-10.428,13.904-17.832,26.148-17.832c7.254,0,14.357,2.945,19.268,7.705l-3.475,4.611c-4.156-4.157-9.825-6.65-15.719-6.65
		c-8.767,0-16.248,4.911-19.649,12.166h20.48v3.854H146.28c-0.376,1.513-0.602,3.174-0.602,4.838c0,1.738,0.226,3.475,0.602,5.063
		h21.766v3.854h-20.33c3.478,7.104,10.884,11.939,19.499,11.939c5.742,0,11.412-2.418,15.719-6.348L186.485,141.692z"/>
</g>
<circle fill="#FFFFFF" stroke="#E62451" stroke-width="10" stroke-miterlimit="10" cx="117.477" cy="190.657" r="74.79"/>
<path fill="#E62451" d="M136.929,208.231c-5.064,4.91-12.243,8.16-19.573,8.16c-12.089,0-22.141-7.404-25.844-17.91h-8.54v-3.854
	h7.48c-0.303-1.662-0.453-3.324-0.453-5.063c0-1.662,0.15-3.25,0.453-4.838h-7.48v-3.854h8.465
	c3.701-10.428,13.903-17.832,26.146-17.832c7.255,0,14.358,2.945,19.269,7.705l-3.475,4.611c-4.156-4.156-9.825-6.65-15.719-6.65
	c-8.766,0-16.248,4.912-19.648,12.166h20.48v3.854H96.725c-0.377,1.514-0.602,3.176-0.602,4.838c0,1.738,0.225,3.475,0.602,5.063
	h21.766v3.854H98.16c3.478,7.105,10.883,11.941,19.498,11.941c5.743,0,11.412-2.418,15.719-6.35L136.929,208.231z"/>
</svg>
