<?xml version="1.0" encoding="utf-8"?>
<!-- Generator: Adobe Illustrator 16.0.0, SVG Export Plug-In . SVG Version: 6.00 Build 0)  -->
<!DOCTYPE svg PUBLIC "-//W3C//DTD SVG 1.1//EN" "http://www.w3.org/Graphics/SVG/1.1/DTD/svg11.dtd">
<svg version="1.1" id="Livello_1" xmlns="http://www.w3.org/2000/svg" xmlns:xlink="http://www.w3.org/1999/xlink" x="0px" y="0px"
	 width="118.459px" height="233.232px" viewBox="0 0 118.459 233.232" enable-background="new 0 0 118.459 233.232"
	 xml:space="preserve">
<g>
	<path fill="#CD1048" d="M78.359,31.88c0,14.292-11.592,25.877-25.878,25.877c-14.3,0-25.884-11.585-25.884-25.877
		C26.597,17.585,38.181,6,52.48,6C66.767,6,78.359,17.585,78.359,31.88z"/>
	<path fill="#CD1048" d="M54.213,57.758c59.005,0,52.351,77.206,52.351,77.206s-5.713,11.508-14.59,0
		c0,0-2.541-36.681-13.961-48.808v59.046v81.76c0,0-8.252,14.109-19.035,0l-0.632-71.572c0,0-2.017-2.348-4.999-2.648
		c-2.98,0.301-5,2.648-5,2.648l-0.633,71.572c-10.788,14.109-19.033,0-19.033,0v-81.76V86.156
		c-11.421,12.127-13.957,48.808-13.957,48.808c-8.882,11.508-14.595,0-14.595,0S-6.524,57.758,52.48,57.758"/>
</g>
<g>
	<g>
		<g>
			<path fill="#FFFFFF" d="M90.15,25.88c0,14.292-11.592,25.877-25.879,25.877c-14.299,0-25.883-11.585-25.883-25.877
				C38.388,11.585,49.972,0,64.271,0C78.558,0,90.15,11.585,90.15,25.88z"/>
		</g>
		<g>
			<path fill="#FFFFFF" d="M66.003,51.758c59.006,0,52.352,77.206,52.352,77.206s-5.713,11.508-14.59,0
				c0,0-2.541-36.681-13.961-48.808v59.046v81.76c0,0-8.252,14.109-19.035,0l-0.631-71.572c0,0-2.018-2.348-5-2.648
				c-2.98,0.301-5,2.648-5,2.648l-0.633,71.572c-10.788,14.109-19.033,0-19.033,0v-81.76V80.156
				c-11.421,12.127-13.957,48.808-13.957,48.808c-8.882,11.508-14.595,0-14.595,0s-6.654-77.206,52.35-77.206"/>
		</g>
	</g>
</g>
</svg>
