<?xml version="1.0" encoding="utf-8"?>
<!-- Generator: Adobe Illustrator 16.0.0, SVG Export Plug-In . SVG Version: 6.00 Build 0)  -->
<!DOCTYPE svg PUBLIC "-//W3C//DTD SVG 1.1//EN" "http://www.w3.org/Graphics/SVG/1.1/DTD/svg11.dtd">
<svg version="1.1" id="Livello_1" xmlns="http://www.w3.org/2000/svg" xmlns:xlink="http://www.w3.org/1999/xlink" x="0px" y="0px"
	 width="119.281px" height="233.232px" viewBox="0 0 119.281 233.232" enable-background="new 0 0 119.281 233.232"
	 xml:space="preserve">
<g>
	<g>
		<path fill="#CD0F47" d="M79.059,31.88c0,14.292-11.592,25.877-25.878,25.877c-14.3,0-25.884-11.585-25.884-25.877
			C27.297,17.584,38.881,6,53.181,6C67.467,6,79.059,17.584,79.059,31.88z"/>
		<path fill="#CD0F47" d="M54.913,57.757c59.006,0,52.352,77.206,52.352,77.206s-5.714,11.508-14.591,0
			c0,0-2.54-36.681-13.961-48.808v59.046v81.76c0,0-8.252,14.109-19.034,0l-0.632-71.572c0,0-2.017-2.348-4.999-2.648
			c-2.98,0.301-5,2.648-5,2.648l-0.633,71.572c-10.788,14.109-19.033,0-19.033,0v-81.76V86.156
			c-11.421,12.127-13.957,48.808-13.957,48.808c-8.882,11.508-14.595,0-14.595,0s-6.654-77.206,52.351-77.206"/>
	</g>
	<g>
		<g>
			<g>
				<path fill="#FFFFFF" d="M90.85,25.88c0,14.292-11.592,25.877-25.878,25.877c-14.3,0-25.884-11.585-25.884-25.877
					C39.088,11.584,50.672,0,64.972,0C79.258,0,90.85,11.584,90.85,25.88z"/>
			</g>
			<g>
				<path fill="#FFFFFF" d="M66.704,51.757c59.006,0,52.352,77.206,52.352,77.206s-5.714,11.508-14.591,0
					c0,0-2.54-36.681-13.961-48.808v59.046v81.76c0,0-8.252,14.109-19.034,0l-0.632-71.572c0,0-2.017-2.348-4.999-2.648
					c-2.98,0.301-5,2.648-5,2.648l-0.633,71.572c-10.788,14.109-19.033,0-19.033,0v-81.76V80.156
					c-11.421,12.127-13.957,48.808-13.957,48.808c-8.882,11.508-14.595,0-14.595,0S5.967,51.757,64.972,51.757"/>
			</g>
		</g>
	</g>
</g>
<line fill="none" stroke="#E52050" stroke-width="4" stroke-linecap="round" stroke-linejoin="round" stroke-miterlimit="10" x1="56.566" y1="85.801" x2="74.623" y2="85.801"/>
</svg>
